# xmcd CD database file
#
# Track frame offsets:
#	150
#	69848
#	136484
#	201873
#
# Disc length: 3294 seconds
#
# Revision: 0
# Processed by: cddbd v1.5.1PL0 Copyright (c) Steve Scherf et al.
# Submitted via: CDex 1.51
#
DISCID=340cdc04
DTITLE=Healing Therapy Music - Tai Chi
DYEAR=1900
DGENRE=New Age
TTITLE0=Morning Dewdrops
TTITLE1=Balancing
TTITLE2=The Easy Way
TTITLE3=Vital Energy
EXTD=
EXTT0=
EXTT1=
EXTT2=
EXTT3=
PLAYORDER=
